<svg xmlns="http://www.w3.org/2000/svg" width="38.88" height="35.966" viewBox="0 0 38.88 35.966">
  <g>
    <path d="M36.38,5.63H31.79a8.122,8.122,0,0,0-15.46,0H2.5a2.5,2.5,0,0,0,0,5H16.33a8.122,8.122,0,0,0,15.46,0h4.59a2.5,2.5,0,0,0,0-5ZM24.06,12a3.87,3.87,0,1,1,3.87-3.87A3.873,3.873,0,0,1,24.06,12Z" fill="#111"/>
    <path d="M2.5,30.336H7.09a8.122,8.122,0,0,0,15.46,0H36.38a2.5,2.5,0,1,0,0-5H22.55a8.122,8.122,0,0,0-15.46,0H2.5a2.5,2.5,0,0,0,0,5Zm12.32-6.37a3.87,3.87,0,1,1-3.87,3.87A3.873,3.873,0,0,1,14.82,23.966Z" fill="#111"/>
  </g>
</svg>
