<svg xmlns="http://www.w3.org/2000/svg" width="35.808" height="38.777" viewBox="0 0 35.808 38.777">
  <g>
    <path d="M27.287,12.334,26.025,13.6a2,2,0,0,1-2.828,0L20.671,11.07V22.22a2,2,0,0,1-2,2h-1.78a2,2,0,0,1-2-2V11.07L12.365,13.6a2,2,0,0,1-2.828,0L8.275,12.334a2,2,0,0,1,0-2.828L17.781,0l2.89,2.89,1.2,1.2,5.416,5.416A2,2,0,0,1,27.287,12.334Z" fill="#111"/>
    <path d="M31.808,38.777H4a4,4,0,0,1-4-4V25.071a3,3,0,0,1,6,0v7.706H29.808V25.071a3,3,0,0,1,6,0v9.706A4,4,0,0,1,31.808,38.777Z" fill="#111"/>
  </g>
</svg>
